PathFileType	4	(X/Y/Z)	C:\Users\preethimanoharan\Documents\OpenSim\4.3\Models\Opensim Spine models\FBLS model Full body musculoskeletal model of lumar spine\Ha Pilot data\test_data_markers.trc
DataRate	CameraRate	NumFrames	NumMarkers	Units	OrigDataRate	OrigDataStartFrame	OrigNumFrames
100.000000	100.000000	4	41	mm	100.000000	1390	1854
Frame#	Time	RFHD			LFHD			LBHD			RBHD			LSHO			LUPA			LELB			LFRM			LWRA			LWRB			LFIN			RSHO			RUPA			RELB			RFRM			RWRA			RWRB			RFIN			LTHI			LKNE			LTIB			LANK			LHEE			LTOE			LMT5			RTHI			RKNE			RTIB			RANK			RHEE			RTOE			RMT5			CLAV			STRN			LASI			RASI			C7			LPSI			RPSI			RBAK			T10			
		X1	Y1	Z1	X2	Y2	Z2	X3	Y3	Z3	X4	Y4	Z4	X5	Y5	Z5	X6	Y6	Z6	X7	Y7	Z7	X8	Y8	Z8	X9	Y9	Z9	X10	Y10	Z10	X11	Y11	Z11	X12	Y12	Z12	X13	Y13	Z13	X14	Y14	Z14	X15	Y15	Z15	X16	Y16	Z16	X17	Y17	Z17	X18	Y18	Z18	X19	Y19	Z19	X20	Y20	Z20	X21	Y21	Z21	X22	Y22	Z22	X23	Y23	Z23	X24	Y24	Z24	X25	Y25	Z25	X26	Y26	Z26	X27	Y27	Z27	X28	Y28	Z28	X29	Y29	Z29	X30	Y30	Z30	X31	Y31	Z31	X32	Y32	Z32	X33	Y33	Z33	X34	Y34	Z34	X35	Y35	Z35	X36	Y36	Z36	X37	Y37	Z37	X38	Y38	Z38	X39	Y39	Z39	X40	Y40	Z40	X41	Y41	Z41	

1391	13.9	1093.085815429688	1682.122314453125	-724.8418579101561	961.4358520507812	1688.25830078125	-707.9563598632811	976.9400024414062	1676.632080078125	-569.2297363281249	1106.319091796875	1683.91162109375	-588.8547973632811	908.1450805664062	1461.120727539062	-574.6168823242186	746.4998168945312	1456.762084960938	-621.6315917968749	591.9141235351562	1437.675415039062	-611.7669067382811	496.564453125	1469.134765625	-626.4981689453124	367.7067260742188	1486.945678710938	-712.4777221679686	358.0776672363281	1474.615600585938	-648.8419189453124	285.5458679199219	1482.228759765625	-689.0237426757811	1154.980590820312	1467.593383789062	-585.5963745117186	1329.578125	1404.261108398438	-593.2797851562499	nan	nan	nan	1603.672729492188	1422.367309570312	-629.2750244140624	1698.10498046875	1445.856567382812	-705.6682739257811	1699.642944335938	1409.444702148438	-649.8426513671874	1774.577758789062	1430.877197265625	-673.7293701171874	846.1520385742188	622.4103393554688	-645.9863891601562	860.2158203125	473.4113464355469	-628.681396484375	839.1080322265625	261.2993164062501	-580.950927734375	848.0150756835938	77.5284118652344	-566.486328125	893.744140625	40.31666564941409	-521.4302368164062	875.329345703125	46.83465576171879	-699.9266967773438	820.345947265625	20.69323158264164	-668.4562377929688	1215.523559570312	615.97802734375	-650.26220703125	1205.894775390625	476.2149963378907	-636.1460571289062	1234.003662109375	339.0046997070313	-584.7079467773438	1195.987670898438	79.81569671630862	-558.666748046875	1153.739868164062	48.86336898803714	-518.094482421875	1171.555297851562	51.37477493286137	-682.8819580078125	1240.221557617188	18.19143104553227	-648.6629638671875	1026.725830078125	1416.705078125	-712.5559692382811	1030.721069335938	1246.124267578125	-761.9807739257811	909.0568237304688	958.5888061523438	-728.1292114257811	1158.540161132812	967.1522216796875	-711.7481689453124	1033.16748046875	1480.168090820312	-576.5034179687499	962.6838989257812	1004.552490234375	-574.4442749023436	1084.015869140625	1000.58203125	-568.5599365234374	1114.145263671875	1309.865966796875	-543.4409790039061	1032.455078125	1110.392333984375	-585.0803833007811	
1392	13.91	1093.13671875	1682.142456054688	-724.8053588867186	961.4859619140625	1688.252197265625	-707.8267211914061	976.950927734375	1676.702392578125	-568.8545532226561	1106.513916015625	1683.8916015625	-588.9553222656249	908.1425170898438	1461.090942382812	-574.5525512695311	746.4895629882812	1456.6611328125	-621.5932617187499	591.9057006835938	1437.437744140625	-611.9443969726561	497.1766662597656	1468.599853515625	-626.7255249023436	367.7361755371094	1486.704956054688	-712.5620727539061	358.0667724609375	1474.259643554688	-648.8591308593749	285.55615234375	1481.970458984375	-689.1448974609374	1155.117919921875	1467.5400390625	-585.5665283203124	1329.595336914062	1404.140502929688	-593.1829833984374	nan	nan	nan	1603.661254882812	1422.096435546875	-629.2095336914061	1698.101196289062	1445.556640625	-705.5662231445311	1699.689819335938	1409.128784179688	-649.7398071289061	1774.429321289062	1430.295654296875	-674.1495971679686	846.1093139648438	622.396728515625	-645.8108520507812	860.1747436523438	473.4508666992188	-628.6719360351562	839.0841674804688	261.2738037109376	-580.9068603515625	848.014404296875	77.57891845703128	-566.48193359375	893.7373046875	40.32403945922854	-521.43408203125	875.327880859375	46.82856369018559	-699.908447265625	820.32958984375	20.70579719543461	-668.4956665039062	1215.516235351562	615.9320678710938	-650.3071899414062	1205.874267578125	476.1993408203126	-636.1513671875	1234.006103515625	338.9489746093751	-584.6753540039062	1195.982299804688	79.84351348876956	-558.659423828125	1153.787109375	48.90143585205081	-518.0928344726562	1171.498779296875	51.08674621582036	-683.2705078125	1240.265258789062	18.20430564880375	-648.6566772460938	1026.799072265625	1416.613891601562	-712.5562133789061	1030.7197265625	1246.00830078125	-761.9709472656249	909.0380859375	958.6195068359375	-728.0386352539061	1158.510131835938	967.1453857421875	-711.6965942382811	1033.24365234375	1480.187255859375	-576.4498291015624	962.9133911132812	1004.92822265625	-574.0218505859374	1084.0517578125	1000.628967285156	-568.5135498046874	1114.175170898438	1309.845947265625	-543.3925170898436	1032.478515625	1110.391479492188	-585.0574951171874	
1393	13.92	1093.122436523438	1682.090454101562	-724.7377319335936	961.5245361328125	1688.306030273438	-707.7651977539061	977.0953369140625	1676.669677734375	-569.0184326171874	1106.596557617188	1683.924438476562	-588.9111938476561	908.0829467773438	1461.057250976562	-574.5372314453124	746.51123046875	1456.5927734375	-621.5753784179686	591.9033203125	1437.345581054688	-611.8449096679686	497.1949768066406	1468.355834960938	-626.7941894531249	367.7223510742188	1486.48828125	-712.6256103515624	358.0615539550781	1474.021118164062	-648.8904418945311	285.5976257324219	1481.683227539062	-689.2678833007811	1155.131958007812	1467.531372070312	-585.4475708007811	1329.629760742188	1404.065063476562	-593.1116943359374	nan	nan	nan	1603.69775390625	1421.820922851562	-629.1144409179686	1698.1796875	1445.308349609375	-705.5384521484374	1699.66796875	1408.860595703125	-649.7105712890624	1774.642578125	1430.179077148438	-673.6487426757811	846.124267578125	622.5125732421875	-645.8980712890625	860.2044677734375	473.4935302734376	-628.6651000976562	839.1485595703125	261.3313293457032	-580.9703369140625	848.0396118164062	77.56533813476565	-566.5385131835938	893.7990112304688	40.34415054321292	-521.433349609375	875.3150634765625	46.83483123779301	-699.9256591796875	820.3497314453125	20.71603202819828	-668.4978637695312	1215.557983398438	615.9242553710938	-650.2814331054688	1205.983154296875	476.2761535644532	-636.14599609375	1234.025390625	339.0152587890626	-584.7111206054688	1195.999267578125	79.86005401611331	-558.6622924804688	1153.348999023438	49.05246353149417	-517.7352905273438	1171.61767578125	51.38189697265629	-682.8821411132812	1240.230834960938	18.2379360198975	-648.6580200195312	1026.840209960938	1416.599609375	-712.5133666992186	1030.744506835938	1246.036987304688	-761.9035034179686	909.100341796875	958.3865966796875	-728.0502319335936	1158.490844726562	967.1552734375	-711.6533813476561	1033.244384765625	1480.188110351562	-576.3672485351561	962.7359008789062	1004.553466796875	-574.3556518554686	1084.166870117188	1000.588134765625	-568.5460815429686	1114.212036132812	1309.849609375	-543.3236694335936	1032.55322265625	1110.418701171875	-585.0455322265624	
1394	13.93	1093.169677734375	1682.069702148438	-724.7153320312499	961.5712280273438	1688.316772460938	-707.6763916015624	977.0030517578125	1676.866821289062	-568.2442626953124	1106.6162109375	1683.904174804688	-588.8485717773436	908.159912109375	1461.036987304688	-574.4165039062499	746.5111083984375	1456.535766601562	-621.5305786132811	591.9063720703125	1437.157470703125	-611.8750610351561	496.533935546875	1468.54052734375	-626.6213378906249	367.7465515136719	1486.215576171875	-712.7150878906249	357.9976196289062	1473.782592773438	-648.8004150390624	285.6022644042969	1481.37548828125	-689.3706665039061	1155.167358398438	1467.522827148438	-585.3684082031249	1329.592407226562	1403.97119140625	-593.0245361328124	nan	nan	nan	1603.721801757812	1421.663208007812	-629.0736083984374	1698.217529296875	1445.08544921875	-705.4795532226561	1699.677734375	1408.557373046875	-649.6091918945311	1774.707763671875	1429.860961914062	-673.5792846679686	846.1665649414062	622.3992919921875	-645.7932739257812	860.1952514648438	473.4425964355469	-628.6104125976562	839.1586303710938	261.2268066406251	-580.9520874023438	847.9849853515625	77.63378906250003	-566.4567260742188	893.7974853515625	40.35340499877933	-521.4638671875	875.3460083007812	46.86787414550786	-699.9091796875	820.3804931640625	20.70688819885258	-668.4971923828125	1215.600463867188	615.9683227539062	-650.2483520507812	1205.872314453125	476.2111816406251	-636.162841796875	1233.994995117188	338.9874877929688	-584.7297973632812	1196.019409179688	79.88196563720706	-558.6639404296875	1153.79296875	48.90963363647464	-518.0783081054688	1171.668090820312	51.43047714233403	-682.9044799804688	1240.191650390625	18.16102409362797	-648.6813354492188	1026.797485351562	1416.549682617188	-712.3289794921874	1030.812133789062	1246.08544921875	-761.8837280273436	909.2526245117188	958.5841064453125	-728.1574707031249	1158.532592773438	967.2130737304688	-711.6992797851561	1033.288818359375	1480.199096679688	-576.2780151367186	962.7778930664062	1004.543029785156	-574.2999877929686	1084.0966796875	1000.654113769531	-568.4595336914061	1114.209716796875	1309.841430664062	-543.2170410156249	1032.546630859375	1110.404296875	-585.0125732421874	
